<svg xmlns="http://www.w3.org/2000/svg" xmlns:xlink="http://www.w3.org/1999/xlink" width="40" height="40" viewBox="0 0 40 40">
  <defs>
    <polygon id="wakatime_dark-a" points="0 0 32 0 32 32 0 32"/>
  </defs>
  <g fill="none" fill-rule="evenodd" transform="translate(4 4)">
    <mask id="wakatime_dark-b" fill="#fff">
      <use xlink:href="#wakatime_dark-a"/>
    </mask>
    <path fill="#CBCBCB" d="M14.4375,19.4551 L14.4235,19.4551 C14.1795,19.4511 13.9515,19.3341 13.8045,19.1401 L10.1955,14.3421 C9.9395,13.9861 10.0215,13.4911 10.3765,13.2351 C10.7215,12.9881 11.1995,13.0561 11.4605,13.3891 L14.4605,17.3761 L15.3185,16.3151 C15.4685,16.1301 15.6955,16.0221 15.9345,16.0221 L15.9355,16.0221 C16.1745,16.0221 16.4015,16.1311 16.5515,16.3171 L17.3755,17.3411 L22.0865,11.2671 C22.3575,10.9231 22.8555,10.8631 23.1995,11.1341 C23.5405,11.4021 23.6015,11.8931 23.3385,12.2381 L18.0125,19.1041 C17.8645,19.2961 17.6355,19.4091 17.3935,19.4111 L17.3865,19.4111 C17.1465,19.4111 16.9195,19.3031 16.7695,19.1161 L15.9325,18.0761 L15.0525,19.1621 C14.9025,19.3481 14.6765,19.4551 14.4375,19.4551 M15.9995,4.2261 C22.4925,4.2261 27.7745,9.5081 27.7745,16.0001 C27.7745,22.4921 22.4925,27.7741 15.9995,27.7741 C9.5075,27.7741 4.2255,22.4921 4.2255,16.0001 C4.2255,9.5081 9.5075,4.2261 15.9995,4.2261 M15.9995,0.0001 C7.1635,0.0001 -0.0005,7.1631 -0.0005,16.0001 C-0.0005,24.8371 7.1635,32.0001 15.9995,32.0001 C24.8365,32.0001 31.9995,24.8371 31.9995,16.0001 C31.9995,7.1631 24.8365,0.0001 15.9995,0.0001" mask="url(#wakatime_dark-b)"/>
  </g>
</svg>
