<svg width="40px" height="40px" viewBox="0 0 40 40" version="1.1" xmlns="http://www.w3.org/2000/svg" xmlns:xlink="http://www.w3.org/1999/xlink">
    <g id="Logo" stroke="none" stroke-width="1" fill="none" fill-rule="evenodd">
        <g id="Group" transform="translate(20.000000, 20.000000) scale(-1, 1) rotate(-180.000000) translate(-20.000000, -20.000000) translate(0.000000, 0.000000)" fill="#000000" fill-rule="nonzero">
            <path d="M18.5467534,39.9709123 C18.4214904,39.9552743 17.9595831,39.9005411 17.5289915,39.8536269 C10.0366981,39.0169909 3.42907472,33.6296806 1.00210403,26.3736226 C0.258354944,24.1451996 0,22.5032037 0,20.0011147 C0,18.10891 0.0861183148,17.2331788 0.422762636,15.7006493 C2.02769487,8.47586743 7.53926702,2.6741486 14.6714293,0.719391597 C23.1971424,-1.61849778 32.2160787,1.86878872 36.9447571,9.33596051 C37.5006116,10.2116917 38.455742,12.1508106 38.8158732,13.1281891 C39.215149,14.215034 39.6222538,15.8179347 39.8179772,17.0689792 C40.0606743,18.6327848 40.0606743,21.4476349 39.8179772,22.9645264 C39.1133728,27.3119059 37.1874541,31.1119536 34.1576552,34.1457364 C31.0887117,37.2029764 27.3543084,39.0951812 23.001419,39.7832556 C22.0462886,39.9396362 19.1808974,40.0569216 18.5467534,39.9709123 Z M21.3260263,35.2404004 C23.0405637,35.0840198 24.4967461,34.7165255 26.0625336,34.0440891 C29.6325292,32.5193786 32.5840388,29.555967 34.0950237,25.9826712 C36.0914028,21.2677973 35.6060087,15.8492109 32.7954201,11.6034786 C28.8809512,5.66883634 21.4278025,3.20584251 14.7497186,5.6297412 C12.565445,6.41946303 10.5690659,7.73305974 8.90933112,9.46106496 C4.15716592,14.4261478 3.31164065,21.9402337 6.84249156,27.8514189 C7.76630621,29.3917674 9.30860694,31.1197726 10.7647894,32.2144365 C13.7397857,34.4819546 17.599452,35.5844376 21.3260263,35.2404004 Z" id="Shape"></path>
            <path d="M28.0354259,26.772393 C27.8710183,26.7098408 27.6596369,26.6003744 27.5735186,26.5143651 C27.4874003,26.4361748 26.2347703,24.6847125 24.7864168,22.6204891 C23.3458923,20.5562657 22.0697754,18.7344322 21.9445124,18.5702326 L21.7331311,18.2731095 L21.3338553,18.9377269 C20.8876058,19.6648965 20.6605666,19.8681913 20.1438567,20.0089338 C19.4079366,20.2044095 18.8599109,19.8525532 18.225767,18.8048035 L17.9126095,18.2809286 L16.3155062,20.634456 C14.2643245,23.6682389 14.3347849,23.5665915 13.951167,23.7620672 C13.2543915,24.1139235 12.3540637,23.7933433 12.0017615,23.0739928 C11.7903802,22.6439462 11.7825513,22.0106049 11.9782747,21.6352916 C12.1661692,21.2677973 16.6756373,14.6998137 16.9339923,14.4183287 C17.1532025,14.1759389 17.6699124,13.9100919 17.9204384,13.9022729 C18.5232666,13.9022729 19.0321476,14.2619482 19.5097128,15.043851 L19.8228703,15.5599068 L20.2221461,14.9500226 C20.6683956,14.2541291 20.8484611,14.0977486 21.3416842,13.9726441 C21.7566179,13.8631777 22.2263542,13.9726441 22.5708274,14.2541291 C22.8996428,14.5356142 29.8204237,24.4345036 29.9378578,24.8019979 C30.3214758,25.9748522 29.154964,27.1868015 28.0354259,26.772393 Z" id="Path"></path>
        </g>
    </g>
</svg>
